<mxfile host="app.diagrams.net" modified="2023-07-11T01:00:08.446Z" agent="Mozilla/5.0 (Windows NT 10.0; Win64; x64) AppleWebKit/537.36 (KHTML, like Gecko) Chrome/114.0.0.0 Safari/537.36" etag="CqQQxOKLMqMcF76w9mlm" version="21.6.1" type="github">
  <diagram name="Page-1" id="74e2e168-ea6b-b213-b513-2b3c1d86103e">
    <mxGraphModel dx="1195" dy="663" grid="1" gridSize="10" guides="1" tooltips="1" connect="1" arrows="1" fold="1" page="1" pageScale="1" pageWidth="1100" pageHeight="850" background="none" math="0" shadow="0">
      <root>
        <mxCell id="0" />
        <mxCell id="1" parent="0" />
        <mxCell id="TeHgW-a035bteJpnQWDR-2" value="责任人" style="swimlane;horizontal=0;whiteSpace=wrap;html=1;verticalAlign=middle;labelPosition=center;verticalLabelPosition=middle;align=center;flipV=0;flipH=0;movable=0;resizable=0;rotatable=0;deletable=0;editable=0;locked=1;connectable=0;" vertex="1" parent="1">
          <mxGeometry x="40" y="90" width="1020" height="110" as="geometry" />
        </mxCell>
        <mxCell id="TeHgW-a035bteJpnQWDR-5" value="项目经理" style="rounded=1;whiteSpace=wrap;html=1;labelBackgroundColor=none;fillColor=#e1d5e7;strokeColor=#9673a6;" vertex="1" parent="TeHgW-a035bteJpnQWDR-2">
          <mxGeometry x="80" y="35" width="90" height="40" as="geometry" />
        </mxCell>
        <mxCell id="TeHgW-a035bteJpnQWDR-9" value="产品经理" style="rounded=1;whiteSpace=wrap;html=1;fillColor=#d5e8d4;strokeColor=#82b366;" vertex="1" parent="TeHgW-a035bteJpnQWDR-2">
          <mxGeometry x="190" y="35" width="90" height="40" as="geometry" />
        </mxCell>
        <mxCell id="TeHgW-a035bteJpnQWDR-10" value="美工" style="rounded=1;whiteSpace=wrap;html=1;fillColor=#ffe6cc;strokeColor=#d79b00;" vertex="1" parent="TeHgW-a035bteJpnQWDR-2">
          <mxGeometry x="300" y="35" width="90" height="40" as="geometry" />
        </mxCell>
        <mxCell id="TeHgW-a035bteJpnQWDR-11" value="架构师" style="rounded=1;whiteSpace=wrap;html=1;fillColor=#dae8fc;strokeColor=#6c8ebf;" vertex="1" parent="TeHgW-a035bteJpnQWDR-2">
          <mxGeometry x="410" y="35" width="90" height="40" as="geometry" />
        </mxCell>
        <mxCell id="TeHgW-a035bteJpnQWDR-12" value="开发人员" style="rounded=1;whiteSpace=wrap;html=1;fillColor=#60a917;fontColor=#ffffff;strokeColor=#2D7600;" vertex="1" parent="TeHgW-a035bteJpnQWDR-2">
          <mxGeometry x="520" y="35" width="90" height="40" as="geometry" />
        </mxCell>
        <mxCell id="TeHgW-a035bteJpnQWDR-13" value="测试经理" style="rounded=1;whiteSpace=wrap;html=1;fillColor=#d80073;strokeColor=#A50040;fontColor=#ffffff;" vertex="1" parent="TeHgW-a035bteJpnQWDR-2">
          <mxGeometry x="630" y="35" width="90" height="40" as="geometry" />
        </mxCell>
        <mxCell id="TeHgW-a035bteJpnQWDR-14" value="测试团队" style="rounded=1;whiteSpace=wrap;html=1;fillColor=#6a00ff;fontColor=#ffffff;strokeColor=#3700CC;" vertex="1" parent="TeHgW-a035bteJpnQWDR-2">
          <mxGeometry x="740" y="35" width="90" height="40" as="geometry" />
        </mxCell>
        <mxCell id="TeHgW-a035bteJpnQWDR-15" value="运维团队" style="rounded=1;whiteSpace=wrap;html=1;fillColor=#1ba1e2;fontColor=#ffffff;strokeColor=#006EAF;" vertex="1" parent="TeHgW-a035bteJpnQWDR-2">
          <mxGeometry x="850" y="35" width="90" height="40" as="geometry" />
        </mxCell>
        <mxCell id="TeHgW-a035bteJpnQWDR-3" value="需求分析阶段" style="swimlane;horizontal=0;whiteSpace=wrap;html=1;movable=0;resizable=0;rotatable=0;deletable=0;editable=0;locked=1;connectable=0;" vertex="1" parent="1">
          <mxGeometry x="40" y="200" width="1020" height="180" as="geometry" />
        </mxCell>
        <mxCell id="TeHgW-a035bteJpnQWDR-18" value="" style="edgeStyle=orthogonalEdgeStyle;rounded=0;orthogonalLoop=1;jettySize=auto;html=1;" edge="1" parent="TeHgW-a035bteJpnQWDR-3" source="TeHgW-a035bteJpnQWDR-16" target="TeHgW-a035bteJpnQWDR-17">
          <mxGeometry relative="1" as="geometry" />
        </mxCell>
        <mxCell id="TeHgW-a035bteJpnQWDR-16" value="项目启动" style="rounded=1;whiteSpace=wrap;html=1;labelBackgroundColor=none;fillColor=#e1d5e7;strokeColor=#9673a6;" vertex="1" parent="TeHgW-a035bteJpnQWDR-3">
          <mxGeometry x="80" y="30" width="90" height="40" as="geometry" />
        </mxCell>
        <mxCell id="TeHgW-a035bteJpnQWDR-20" style="edgeStyle=orthogonalEdgeStyle;rounded=0;orthogonalLoop=1;jettySize=auto;html=1;exitX=1;exitY=0.5;exitDx=0;exitDy=0;entryX=0;entryY=0.5;entryDx=0;entryDy=0;" edge="1" parent="TeHgW-a035bteJpnQWDR-3" source="TeHgW-a035bteJpnQWDR-17" target="TeHgW-a035bteJpnQWDR-19">
          <mxGeometry relative="1" as="geometry" />
        </mxCell>
        <mxCell id="TeHgW-a035bteJpnQWDR-17" value="立项" style="rounded=1;whiteSpace=wrap;html=1;labelBackgroundColor=none;fillColor=#e1d5e7;strokeColor=#9673a6;" vertex="1" parent="TeHgW-a035bteJpnQWDR-3">
          <mxGeometry x="80" y="100" width="90" height="40" as="geometry" />
        </mxCell>
        <mxCell id="TeHgW-a035bteJpnQWDR-27" style="edgeStyle=orthogonalEdgeStyle;rounded=0;orthogonalLoop=1;jettySize=auto;html=1;exitX=1;exitY=0.5;exitDx=0;exitDy=0;" edge="1" parent="TeHgW-a035bteJpnQWDR-3" source="TeHgW-a035bteJpnQWDR-19" target="TeHgW-a035bteJpnQWDR-21">
          <mxGeometry relative="1" as="geometry" />
        </mxCell>
        <mxCell id="TeHgW-a035bteJpnQWDR-28" style="edgeStyle=orthogonalEdgeStyle;rounded=0;orthogonalLoop=1;jettySize=auto;html=1;exitX=1;exitY=0.5;exitDx=0;exitDy=0;" edge="1" parent="TeHgW-a035bteJpnQWDR-3" source="TeHgW-a035bteJpnQWDR-19" target="TeHgW-a035bteJpnQWDR-22">
          <mxGeometry relative="1" as="geometry" />
        </mxCell>
        <mxCell id="TeHgW-a035bteJpnQWDR-29" style="edgeStyle=orthogonalEdgeStyle;rounded=0;orthogonalLoop=1;jettySize=auto;html=1;exitX=1;exitY=0.5;exitDx=0;exitDy=0;entryX=0;entryY=0.5;entryDx=0;entryDy=0;" edge="1" parent="TeHgW-a035bteJpnQWDR-3" source="TeHgW-a035bteJpnQWDR-19" target="TeHgW-a035bteJpnQWDR-24">
          <mxGeometry relative="1" as="geometry" />
        </mxCell>
        <mxCell id="TeHgW-a035bteJpnQWDR-19" value="需求调研" style="rounded=1;whiteSpace=wrap;html=1;labelBackgroundColor=none;" vertex="1" parent="TeHgW-a035bteJpnQWDR-3">
          <mxGeometry x="230" y="30" width="90" height="40" as="geometry" />
        </mxCell>
        <mxCell id="TeHgW-a035bteJpnQWDR-31" style="edgeStyle=orthogonalEdgeStyle;rounded=0;orthogonalLoop=1;jettySize=auto;html=1;exitX=1;exitY=0.5;exitDx=0;exitDy=0;entryX=0;entryY=0.5;entryDx=0;entryDy=0;" edge="1" parent="TeHgW-a035bteJpnQWDR-3" source="TeHgW-a035bteJpnQWDR-21" target="TeHgW-a035bteJpnQWDR-30">
          <mxGeometry relative="1" as="geometry" />
        </mxCell>
        <mxCell id="TeHgW-a035bteJpnQWDR-21" value="原型设计axure" style="rounded=1;whiteSpace=wrap;html=1;fillColor=#d5e8d4;strokeColor=#82b366;" vertex="1" parent="TeHgW-a035bteJpnQWDR-3">
          <mxGeometry x="370" width="90" height="40" as="geometry" />
        </mxCell>
        <mxCell id="TeHgW-a035bteJpnQWDR-32" style="edgeStyle=orthogonalEdgeStyle;rounded=0;orthogonalLoop=1;jettySize=auto;html=1;exitX=1;exitY=0.5;exitDx=0;exitDy=0;entryX=0;entryY=0.5;entryDx=0;entryDy=0;" edge="1" parent="TeHgW-a035bteJpnQWDR-3" source="TeHgW-a035bteJpnQWDR-22" target="TeHgW-a035bteJpnQWDR-30">
          <mxGeometry relative="1" as="geometry" />
        </mxCell>
        <mxCell id="TeHgW-a035bteJpnQWDR-22" value="业务需求说明说" style="rounded=1;whiteSpace=wrap;html=1;fillColor=#d5e8d4;strokeColor=#82b366;" vertex="1" parent="TeHgW-a035bteJpnQWDR-3">
          <mxGeometry x="370" y="60" width="90" height="40" as="geometry" />
        </mxCell>
        <mxCell id="TeHgW-a035bteJpnQWDR-33" style="edgeStyle=orthogonalEdgeStyle;rounded=0;orthogonalLoop=1;jettySize=auto;html=1;exitX=1;exitY=0.5;exitDx=0;exitDy=0;entryX=0;entryY=0.5;entryDx=0;entryDy=0;" edge="1" parent="TeHgW-a035bteJpnQWDR-3" source="TeHgW-a035bteJpnQWDR-24" target="TeHgW-a035bteJpnQWDR-30">
          <mxGeometry relative="1" as="geometry" />
        </mxCell>
        <mxCell id="TeHgW-a035bteJpnQWDR-24" value="ui设计" style="rounded=1;whiteSpace=wrap;html=1;fillColor=#ffe6cc;strokeColor=#d79b00;" vertex="1" parent="TeHgW-a035bteJpnQWDR-3">
          <mxGeometry x="370" y="110" width="90" height="40" as="geometry" />
        </mxCell>
        <mxCell id="TeHgW-a035bteJpnQWDR-35" style="edgeStyle=orthogonalEdgeStyle;rounded=0;orthogonalLoop=1;jettySize=auto;html=1;exitX=1;exitY=0.5;exitDx=0;exitDy=0;" edge="1" parent="TeHgW-a035bteJpnQWDR-3" source="TeHgW-a035bteJpnQWDR-30" target="TeHgW-a035bteJpnQWDR-34">
          <mxGeometry relative="1" as="geometry" />
        </mxCell>
        <mxCell id="TeHgW-a035bteJpnQWDR-30" value="用户确认" style="rounded=1;whiteSpace=wrap;html=1;labelBackgroundColor=none;dashed=1;" vertex="1" parent="TeHgW-a035bteJpnQWDR-3">
          <mxGeometry x="520" y="50" width="90" height="40" as="geometry" />
        </mxCell>
        <mxCell id="TeHgW-a035bteJpnQWDR-36" style="edgeStyle=orthogonalEdgeStyle;rounded=0;orthogonalLoop=1;jettySize=auto;html=1;exitX=0.5;exitY=1;exitDx=0;exitDy=0;entryX=0.5;entryY=1;entryDx=0;entryDy=0;" edge="1" parent="TeHgW-a035bteJpnQWDR-3" source="TeHgW-a035bteJpnQWDR-34" target="TeHgW-a035bteJpnQWDR-19">
          <mxGeometry relative="1" as="geometry">
            <Array as="points">
              <mxPoint x="710" y="160" />
              <mxPoint x="275" y="160" />
            </Array>
          </mxGeometry>
        </mxCell>
        <mxCell id="TeHgW-a035bteJpnQWDR-37" value="不通过" style="edgeLabel;html=1;align=center;verticalAlign=middle;resizable=0;points=[];" vertex="1" connectable="0" parent="TeHgW-a035bteJpnQWDR-36">
          <mxGeometry x="-0.9051" y="1" relative="1" as="geometry">
            <mxPoint as="offset" />
          </mxGeometry>
        </mxCell>
        <mxCell id="TeHgW-a035bteJpnQWDR-39" value="" style="edgeStyle=orthogonalEdgeStyle;rounded=0;orthogonalLoop=1;jettySize=auto;html=1;" edge="1" parent="TeHgW-a035bteJpnQWDR-3" source="TeHgW-a035bteJpnQWDR-34" target="TeHgW-a035bteJpnQWDR-38">
          <mxGeometry relative="1" as="geometry" />
        </mxCell>
        <mxCell id="TeHgW-a035bteJpnQWDR-42" value="通过" style="edgeLabel;html=1;align=center;verticalAlign=middle;resizable=0;points=[];" vertex="1" connectable="0" parent="TeHgW-a035bteJpnQWDR-39">
          <mxGeometry x="-0.5625" relative="1" as="geometry">
            <mxPoint as="offset" />
          </mxGeometry>
        </mxCell>
        <mxCell id="TeHgW-a035bteJpnQWDR-34" value="需求评审" style="rhombus;whiteSpace=wrap;html=1;" vertex="1" parent="TeHgW-a035bteJpnQWDR-3">
          <mxGeometry x="670" y="45" width="80" height="50" as="geometry" />
        </mxCell>
        <mxCell id="TeHgW-a035bteJpnQWDR-38" value="文档存档git" style="shape=document;whiteSpace=wrap;html=1;boundedLbl=1;movable=1;resizable=1;rotatable=1;deletable=1;editable=1;locked=0;connectable=1;" vertex="1" parent="TeHgW-a035bteJpnQWDR-3">
          <mxGeometry x="830" y="42.5" width="90" height="55" as="geometry" />
        </mxCell>
        <mxCell id="TeHgW-a035bteJpnQWDR-4" value="软件设计阶段" style="swimlane;horizontal=0;whiteSpace=wrap;html=1;" vertex="1" parent="1">
          <mxGeometry x="40" y="380" width="1020" height="210" as="geometry" />
        </mxCell>
        <mxCell id="TeHgW-a035bteJpnQWDR-53" value="" style="edgeStyle=orthogonalEdgeStyle;rounded=0;orthogonalLoop=1;jettySize=auto;html=1;" edge="1" parent="TeHgW-a035bteJpnQWDR-4" source="TeHgW-a035bteJpnQWDR-40" target="TeHgW-a035bteJpnQWDR-43">
          <mxGeometry relative="1" as="geometry" />
        </mxCell>
        <mxCell id="TeHgW-a035bteJpnQWDR-40" value="分析需求" style="rounded=1;whiteSpace=wrap;html=1;fillColor=#60a917;fontColor=#ffffff;strokeColor=#2D7600;" vertex="1" parent="TeHgW-a035bteJpnQWDR-4">
          <mxGeometry x="80" y="20" width="90" height="40" as="geometry" />
        </mxCell>
        <mxCell id="TeHgW-a035bteJpnQWDR-54" style="edgeStyle=orthogonalEdgeStyle;rounded=0;orthogonalLoop=1;jettySize=auto;html=1;exitX=1;exitY=0.5;exitDx=0;exitDy=0;entryX=0;entryY=0.5;entryDx=0;entryDy=0;" edge="1" parent="TeHgW-a035bteJpnQWDR-4" source="TeHgW-a035bteJpnQWDR-43" target="TeHgW-a035bteJpnQWDR-45">
          <mxGeometry relative="1" as="geometry" />
        </mxCell>
        <mxCell id="TeHgW-a035bteJpnQWDR-55" style="edgeStyle=orthogonalEdgeStyle;rounded=0;orthogonalLoop=1;jettySize=auto;html=1;exitX=1;exitY=0.5;exitDx=0;exitDy=0;" edge="1" parent="TeHgW-a035bteJpnQWDR-4" source="TeHgW-a035bteJpnQWDR-43" target="TeHgW-a035bteJpnQWDR-50">
          <mxGeometry relative="1" as="geometry" />
        </mxCell>
        <mxCell id="TeHgW-a035bteJpnQWDR-56" style="edgeStyle=orthogonalEdgeStyle;rounded=0;orthogonalLoop=1;jettySize=auto;html=1;exitX=1;exitY=0.5;exitDx=0;exitDy=0;entryX=0;entryY=0.5;entryDx=0;entryDy=0;" edge="1" parent="TeHgW-a035bteJpnQWDR-4" source="TeHgW-a035bteJpnQWDR-43" target="TeHgW-a035bteJpnQWDR-51">
          <mxGeometry relative="1" as="geometry" />
        </mxCell>
        <mxCell id="TeHgW-a035bteJpnQWDR-43" value="架构师" style="rounded=1;whiteSpace=wrap;html=1;fillColor=#dae8fc;strokeColor=#6c8ebf;" vertex="1" parent="TeHgW-a035bteJpnQWDR-4">
          <mxGeometry x="80" y="90" width="90" height="40" as="geometry" />
        </mxCell>
        <mxCell id="TeHgW-a035bteJpnQWDR-58" style="edgeStyle=orthogonalEdgeStyle;rounded=0;orthogonalLoop=1;jettySize=auto;html=1;exitX=1;exitY=0.5;exitDx=0;exitDy=0;entryX=0;entryY=0.5;entryDx=0;entryDy=0;" edge="1" parent="TeHgW-a035bteJpnQWDR-4" source="TeHgW-a035bteJpnQWDR-45" target="TeHgW-a035bteJpnQWDR-52">
          <mxGeometry relative="1" as="geometry" />
        </mxCell>
        <mxCell id="TeHgW-a035bteJpnQWDR-45" value="架构师" style="rounded=1;whiteSpace=wrap;html=1;fillColor=#dae8fc;strokeColor=#6c8ebf;" vertex="1" parent="TeHgW-a035bteJpnQWDR-4">
          <mxGeometry x="230" y="20" width="90" height="40" as="geometry" />
        </mxCell>
        <mxCell id="TeHgW-a035bteJpnQWDR-61" style="edgeStyle=orthogonalEdgeStyle;rounded=0;orthogonalLoop=1;jettySize=auto;html=1;exitX=1;exitY=0.5;exitDx=0;exitDy=0;entryX=0;entryY=0.5;entryDx=0;entryDy=0;" edge="1" parent="TeHgW-a035bteJpnQWDR-4" source="TeHgW-a035bteJpnQWDR-50" target="TeHgW-a035bteJpnQWDR-52">
          <mxGeometry relative="1" as="geometry" />
        </mxCell>
        <mxCell id="TeHgW-a035bteJpnQWDR-50" value="架构师" style="rounded=1;whiteSpace=wrap;html=1;fillColor=#dae8fc;strokeColor=#6c8ebf;" vertex="1" parent="TeHgW-a035bteJpnQWDR-4">
          <mxGeometry x="230" y="80" width="90" height="40" as="geometry" />
        </mxCell>
        <mxCell id="TeHgW-a035bteJpnQWDR-60" style="edgeStyle=orthogonalEdgeStyle;rounded=0;orthogonalLoop=1;jettySize=auto;html=1;exitX=1;exitY=0.5;exitDx=0;exitDy=0;entryX=0;entryY=0.5;entryDx=0;entryDy=0;" edge="1" parent="TeHgW-a035bteJpnQWDR-4" source="TeHgW-a035bteJpnQWDR-51" target="TeHgW-a035bteJpnQWDR-52">
          <mxGeometry relative="1" as="geometry">
            <mxPoint x="400" y="100" as="targetPoint" />
            <Array as="points">
              <mxPoint x="360" y="160" />
              <mxPoint x="360" y="100" />
            </Array>
          </mxGeometry>
        </mxCell>
        <mxCell id="TeHgW-a035bteJpnQWDR-51" value="架构师" style="rounded=1;whiteSpace=wrap;html=1;fillColor=#dae8fc;strokeColor=#6c8ebf;" vertex="1" parent="TeHgW-a035bteJpnQWDR-4">
          <mxGeometry x="230" y="140" width="90" height="40" as="geometry" />
        </mxCell>
        <mxCell id="TeHgW-a035bteJpnQWDR-52" value="架构评审" style="rhombus;whiteSpace=wrap;html=1;" vertex="1" parent="TeHgW-a035bteJpnQWDR-4">
          <mxGeometry x="400" y="75" width="80" height="50" as="geometry" />
        </mxCell>
        <mxCell id="TeHgW-a035bteJpnQWDR-41" style="edgeStyle=orthogonalEdgeStyle;rounded=0;orthogonalLoop=1;jettySize=auto;html=1;exitX=1;exitY=0.5;exitDx=0;exitDy=0;dashed=1;" edge="1" parent="1" source="TeHgW-a035bteJpnQWDR-38" target="TeHgW-a035bteJpnQWDR-40">
          <mxGeometry relative="1" as="geometry">
            <Array as="points">
              <mxPoint x="980" y="270" />
              <mxPoint x="980" y="370" />
              <mxPoint x="165" y="370" />
            </Array>
          </mxGeometry>
        </mxCell>
      </root>
    </mxGraphModel>
  </diagram>
</mxfile>
